<svg xmlns="http://www.w3.org/2000/svg" xmlns:xlink="http://www.w3.org/1999/xlink" contentStyleType="text/css" data-diagram-type="CLASS" height="604px" preserveAspectRatio="none" style="width:1002px;height:604px;background:#FFFFFF;" version="1.1" viewBox="0 0 1002 604" width="1002px" zoomAndPan="magnify"><defs/><g><!--class U--><g class="entity" data-entity="U" data-source-line="50" data-uid="ent0002" id="entity_U"><rect fill="#F1F1F1" height="90.3945" rx="2.5" ry="2.5" style="stroke:#181818;stroke-width:0.5;" width="74.2549" x="193.5" y="317"/><text fill="#000000" font-family="Arial" font-size="14" lengthAdjust="spacing" textLength="38.8965" x="211.1792" y="335.1318">USER</text><line style="stroke:#181818;stroke-width:0.5;" x1="194.5" x2="266.7549" y1="343.0986" y2="343.0986"/><ellipse cx="204.5" cy="356.6479" fill="#000000" rx="3" ry="3" style="stroke:#000000;stroke-width:1;"/><text fill="#000000" font-family="Arial" font-size="14" lengthAdjust="spacing" textLength="41.2412" x="213.5" y="360.2305">id : PK</text><line style="stroke:#181818;stroke-width:1;" x1="194.5" x2="266.7549" y1="367.1973" y2="367.1973"/><text fill="#000000" font-family="Arial" font-size="14" lengthAdjust="spacing" textLength="62.2549" x="199.5" y="384.3291">username</text><text fill="#000000" font-family="Arial" font-size="14" lengthAdjust="spacing" textLength="33.4551" x="199.5" y="400.4277">email</text></g><!--class S--><g class="entity" data-entity="S" data-source-line="57" data-uid="ent0003" id="entity_S"><rect fill="#F1F1F1" height="90.3945" rx="2.5" ry="2.5" style="stroke:#181818;stroke-width:0.5;" width="87.4961" x="187" y="158"/><text fill="#000000" font-family="Arial" font-size="14" lengthAdjust="spacing" textLength="64.5723" x="198.4619" y="176.1318">SHELTER</text><line style="stroke:#181818;stroke-width:0.5;" x1="188" x2="273.4961" y1="184.0986" y2="184.0986"/><ellipse cx="198" cy="197.6479" fill="#000000" rx="3" ry="3" style="stroke:#000000;stroke-width:1;"/><text fill="#000000" font-family="Arial" font-size="14" lengthAdjust="spacing" textLength="41.2412" x="207" y="201.2305">id : PK</text><line style="stroke:#181818;stroke-width:1;" x1="188" x2="273.4961" y1="208.1973" y2="208.1973"/><text fill="#000000" font-family="Arial" font-size="14" lengthAdjust="spacing" textLength="35.0205" x="193" y="225.3291">name</text><text fill="#000000" font-family="Arial" font-size="14" lengthAdjust="spacing" textLength="75.4961" x="193" y="241.4277">contact_info</text></g><!--class A--><g class="entity" data-entity="A" data-source-line="64" data-uid="ent0004" id="entity_A"><rect fill="#F1F1F1" height="186.9863" rx="2.5" ry="2.5" style="stroke:#181818;stroke-width:0.5;" width="89.0547" x="538" y="78.5"/><text fill="#000000" font-family="Arial" font-size="14" lengthAdjust="spacing" textLength="52.124" x="556.4653" y="96.6318">ANIMAL</text><line style="stroke:#181818;stroke-width:0.5;" x1="539" x2="626.0547" y1="104.5986" y2="104.5986"/><ellipse cx="549" cy="118.1479" fill="#000000" rx="3" ry="3" style="stroke:#000000;stroke-width:1;"/><text fill="#000000" font-family="Arial" font-size="14" lengthAdjust="spacing" textLength="41.2412" x="558" y="121.7305">id : PK</text><line style="stroke:#181818;stroke-width:1;" x1="539" x2="626.0547" y1="128.6973" y2="128.6973"/><text fill="#000000" font-family="Arial" font-size="14" lengthAdjust="spacing" textLength="56.8135" x="544" y="145.8291">owner_id</text><text fill="#000000" font-family="Arial" font-size="14" lengthAdjust="spacing" textLength="60.7031" x="544" y="161.9277">shelter_id</text><text fill="#000000" font-family="Arial" font-size="14" lengthAdjust="spacing" textLength="35.0205" x="544" y="178.0264">name</text><text fill="#000000" font-family="Arial" font-size="14" lengthAdjust="spacing" textLength="47.4688" x="544" y="194.125">species</text><text fill="#000000" font-family="Arial" font-size="14" lengthAdjust="spacing" textLength="35.8066" x="544" y="210.2236">breed</text><text fill="#000000" font-family="Arial" font-size="14" lengthAdjust="spacing" textLength="21.7861" x="544" y="226.3223">sex</text><text fill="#000000" font-family="Arial" font-size="14" lengthAdjust="spacing" textLength="77.0547" x="544" y="242.4209">age_months</text><text fill="#000000" font-family="Arial" font-size="14" lengthAdjust="spacing" textLength="37.3516" x="544" y="258.5195">status</text></g><!--class AI--><g class="entity" data-entity="AI" data-source-line="77" data-uid="ent0005" id="entity_AI"><rect fill="#F1F1F1" height="106.4932" rx="2.5" ry="2.5" style="stroke:#181818;stroke-width:0.5;" width="103.2412" x="876" y="7"/><text fill="#000000" font-family="Arial" font-size="14" lengthAdjust="spacing" textLength="97.2412" x="879" y="25.1318">ANIMALIMAGE</text><line style="stroke:#181818;stroke-width:0.5;" x1="877" x2="978.2412" y1="33.0986" y2="33.0986"/><ellipse cx="887" cy="46.6479" fill="#000000" rx="3" ry="3" style="stroke:#000000;stroke-width:1;"/><text fill="#000000" font-family="Arial" font-size="14" lengthAdjust="spacing" textLength="41.2412" x="896" y="50.2305">id : PK</text><line style="stroke:#181818;stroke-width:1;" x1="877" x2="978.2412" y1="57.1973" y2="57.1973"/><text fill="#000000" font-family="Arial" font-size="14" lengthAdjust="spacing" textLength="72.3789" x="882" y="74.3291">owner_type</text><text fill="#000000" font-family="Arial" font-size="14" lengthAdjust="spacing" textLength="56.8135" x="882" y="90.4277">owner_id</text><text fill="#000000" font-family="Arial" font-size="14" lengthAdjust="spacing" textLength="15.5586" x="882" y="106.5264">url</text></g><!--class App--><g class="entity" data-entity="App" data-source-line="85" data-uid="ent0006" id="entity_App"><rect fill="#F1F1F1" height="122.5918" rx="2.5" ry="2.5" style="stroke:#181818;stroke-width:0.5;" width="98.5791" x="533" y="300.5"/><text fill="#000000" font-family="Arial" font-size="14" lengthAdjust="spacing" textLength="92.5791" x="536" y="318.6318">APPLICATION</text><line style="stroke:#181818;stroke-width:0.5;" x1="534" x2="630.5791" y1="326.5986" y2="326.5986"/><ellipse cx="544" cy="340.1479" fill="#000000" rx="3" ry="3" style="stroke:#000000;stroke-width:1;"/><text fill="#000000" font-family="Arial" font-size="14" lengthAdjust="spacing" textLength="41.2412" x="553" y="343.7305">id : PK</text><line style="stroke:#181818;stroke-width:1;" x1="534" x2="630.5791" y1="350.6973" y2="350.6973"/><text fill="#000000" font-family="Arial" font-size="14" lengthAdjust="spacing" textLength="26.4619" x="539" y="367.8291">type</text><text fill="#000000" font-family="Arial" font-size="14" lengthAdjust="spacing" textLength="59.9238" x="539" y="383.9277">animal_id</text><text fill="#000000" font-family="Arial" font-size="14" lengthAdjust="spacing" textLength="74.7236" x="539" y="400.0264">applicant_id</text><text fill="#000000" font-family="Arial" font-size="14" lengthAdjust="spacing" textLength="37.3516" x="539" y="416.125">status</text></g><!--class MR--><g class="entity" data-entity="MR" data-source-line="94" data-uid="ent0007" id="entity_MR"><rect fill="#F1F1F1" height="122.5918" rx="2.5" ry="2.5" style="stroke:#181818;stroke-width:0.5;" width="136.6895" x="859" y="148.5"/><text fill="#000000" font-family="Arial" font-size="14" lengthAdjust="spacing" textLength="130.6895" x="862" y="166.6318">MEDICAL_RECORD</text><line style="stroke:#181818;stroke-width:0.5;" x1="860" x2="994.6895" y1="174.5986" y2="174.5986"/><ellipse cx="870" cy="188.1479" fill="#000000" rx="3" ry="3" style="stroke:#000000;stroke-width:1;"/><text fill="#000000" font-family="Arial" font-size="14" lengthAdjust="spacing" textLength="41.2412" x="879" y="191.7305">id : PK</text><line style="stroke:#181818;stroke-width:1;" x1="860" x2="994.6895" y1="198.6973" y2="198.6973"/><text fill="#000000" font-family="Arial" font-size="14" lengthAdjust="spacing" textLength="59.9238" x="865" y="215.8291">animal_id</text><text fill="#000000" font-family="Arial" font-size="14" lengthAdjust="spacing" textLength="73.9307" x="865" y="231.9277">record_type</text><text fill="#000000" font-family="Arial" font-size="14" lengthAdjust="spacing" textLength="27.248" x="865" y="248.0264">date</text><text fill="#000000" font-family="Arial" font-size="14" lengthAdjust="spacing" textLength="50.5791" x="865" y="264.125">provider</text></g><!--class AL--><g class="entity" data-entity="AL" data-source-line="103" data-uid="ent0008" id="entity_AL"><rect fill="#F1F1F1" height="138.6904" rx="2.5" ry="2.5" style="stroke:#181818;stroke-width:0.5;" width="85.3516" x="540" y="458.5"/><text fill="#000000" font-family="Arial" font-size="14" lengthAdjust="spacing" textLength="79.3516" x="543" y="476.6318">AUDIT_LOG</text><line style="stroke:#181818;stroke-width:0.5;" x1="541" x2="624.3516" y1="484.5986" y2="484.5986"/><ellipse cx="551" cy="498.1479" fill="#000000" rx="3" ry="3" style="stroke:#000000;stroke-width:1;"/><text fill="#000000" font-family="Arial" font-size="14" lengthAdjust="spacing" textLength="41.2412" x="560" y="501.7305">id : PK</text><line style="stroke:#181818;stroke-width:1;" x1="541" x2="624.3516" y1="508.6973" y2="508.6973"/><text fill="#000000" font-family="Arial" font-size="14" lengthAdjust="spacing" textLength="49.8066" x="546" y="525.8291">actor_id</text><text fill="#000000" font-family="Arial" font-size="14" lengthAdjust="spacing" textLength="37.3584" x="546" y="541.9277">action</text><text fill="#000000" font-family="Arial" font-size="14" lengthAdjust="spacing" textLength="70.0479" x="546" y="558.0264">target_type</text><text fill="#000000" font-family="Arial" font-size="14" lengthAdjust="spacing" textLength="54.4824" x="546" y="574.125">target_id</text><text fill="#000000" font-family="Arial" font-size="14" lengthAdjust="spacing" textLength="64.5723" x="546" y="590.2236">timestamp</text></g><!--entity u_username--><g class="entity" data-entity="u_username" data-source-line="114" data-uid="ent0009" id="entity_u_username"><ellipse cx="66.0208" cy="361.8835" fill="#F1F1F1" rx="47.0208" ry="14.3835" style="stroke:#181818;stroke-width:0.5;"/><text fill="#000000" font-family="Arial" font-size="14" lengthAdjust="spacing" textLength="62.2549" x="34.8934" y="366.4328">username</text></g><!--entity u_shelter_name--><g class="entity" data-entity="u_shelter_name" data-source-line="115" data-uid="ent0010" id="entity_u_shelter_name"><ellipse cx="66.0722" cy="202.9144" fill="#F1F1F1" rx="60.0722" ry="14.4144" style="stroke:#181818;stroke-width:0.5;"/><text fill="#000000" font-family="Arial" font-size="14" lengthAdjust="spacing" textLength="80.9307" x="25.6068" y="207.4637">shelter.name</text></g><!--entity u_animal_name--><g class="entity" data-entity="u_animal_name" data-source-line="116" data-uid="ent0011" id="entity_u_animal_name"><ellipse cx="402.6756" cy="140.8835" fill="#F1F1F1" rx="59.6756" ry="14.3835" style="stroke:#181818;stroke-width:0.5;"/><text fill="#000000" font-family="Arial" font-size="14" lengthAdjust="spacing" textLength="80.1514" x="362.5999" y="145.4328">animal.name</text></g><!--entity u_image_url--><g class="entity" data-entity="u_image_url" data-source-line="117" data-uid="ent0012" id="entity_u_image_url"><ellipse cx="744.7146" cy="59.8835" fill="#F1F1F1" rx="43.7146" ry="14.3835" style="stroke:#181818;stroke-width:0.5;"/><text fill="#000000" font-family="Arial" font-size="14" lengthAdjust="spacing" textLength="57.5791" x="715.925" y="64.4328">image.url</text></g><g class="entity" data-entity="R_owns" data-uid="ent0017" id="entity_R_owns"><polygon fill="#F1F1F1" points="402.5,255,414.5,267,402.5,279,390.5,267,402.5,255" style="stroke:#181818;stroke-width:0.5;"/></g><g class="entity" data-entity="R_houses" data-uid="ent0018" id="entity_R_houses"><polygon fill="#F1F1F1" points="402.5,191,414.5,203,402.5,215,390.5,203,402.5,191" style="stroke:#181818;stroke-width:0.5;"/></g><g class="entity" data-entity="R_attachments" data-uid="ent0019" id="entity_R_attachments"><polygon fill="#F1F1F1" points="744.5,117,756.5,129,744.5,141,732.5,129,744.5,117" style="stroke:#181818;stroke-width:0.5;"/></g><g class="entity" data-entity="R_applies" data-uid="ent0020" id="entity_R_applies"><polygon fill="#F1F1F1" points="402.5,350,414.5,362,402.5,374,390.5,362,402.5,350" style="stroke:#181818;stroke-width:0.5;"/></g><g class="entity" data-entity="R_med" data-uid="ent0021" id="entity_R_med"><polygon fill="#F1F1F1" points="744.5,190,756.5,202,744.5,214,732.5,202,744.5,190" style="stroke:#181818;stroke-width:0.5;"/></g><g class="entity" data-entity="R_performs" data-uid="ent0022" id="entity_R_performs"><polygon fill="#F1F1F1" points="402.5,462,414.5,474,402.5,486,390.5,474,402.5,462" style="stroke:#181818;stroke-width:0.5;"/></g><!--link u_username to U--><!--link u_shelter_name to S--><!--link u_animal_name to A--><!--link u_image_url to AI--><!--link U to R_owns--><g class="link" data-entity-1="U" data-entity-2="R_owns" data-source-line="134" data-uid="lnk23" id="link_U_R_owns"><path codeLine="134" d="M274.5339,337.948 C315.6639,314.968 357.2985,291.7034 378.6385,279.7734" fill="none" id="U-R_owns" style="stroke:#181818;stroke-width:1;"/><line style="stroke:#181818;stroke-width:1;" x1="272.9929" x2="269.0909" y1="343.3909" y2="336.4071"/><line style="stroke:#181818;stroke-width:1;" x1="275.6119" x2="271.7099" y1="341.9277" y2="334.9438"/><line style="stroke:#181818;stroke-width:1;" x1="274.5339" x2="267.55" y1="337.948" y2="341.85"/><line style="stroke:#181818;stroke-width:1;" x1="387.3671" x2="391.4222" y1="274.8937" y2="265.7528"/><line style="stroke:#181818;stroke-width:1;" x1="387.3671" x2="397.2778" y1="274.8937" y2="276.2272"/><line style="stroke:#181818;stroke-width:1;" x1="387.3671" x2="394.35" y1="274.8937" y2="270.99"/><ellipse cx="382.1299" cy="277.8216" fill="none" rx="4" ry="4" style="stroke:#181818;stroke-width:1;"/><text fill="#000000" font-family="Arial" font-size="13" lengthAdjust="spacing" textLength="7.23" x="305" y="314.1938">1</text></g><!--link R_owns to A--><g class="link" data-entity-1="R_owns" data-entity-2="A" data-source-line="135" data-uid="lnk24" id="link_R_owns_A"><path codeLine="135" d="M417.7571,259.392 C438.8271,248.142 478.6888,226.8627 521.9688,203.7727" fill="none" id="R_owns-A" style="stroke:#181818;stroke-width:1;"/><line style="stroke:#181818;stroke-width:1;" x1="416.1125" x2="412.3445" y1="264.8045" y2="257.7475"/><line style="stroke:#181818;stroke-width:1;" x1="418.7589" x2="414.9909" y1="263.3915" y2="256.3345"/><line style="stroke:#181818;stroke-width:1;" x1="417.7571" x2="410.7" y1="259.392" y2="263.16"/><line style="stroke:#181818;stroke-width:1;" x1="530.7917" x2="535.0258" y1="199.0656" y2="190.0063"/><line style="stroke:#181818;stroke-width:1;" x1="530.7917" x2="540.6742" y1="199.0656" y2="200.5937"/><line style="stroke:#181818;stroke-width:1;" x1="530.7917" x2="537.85" y1="199.0656" y2="195.3"/><ellipse cx="525.4979" cy="201.8899" fill="none" rx="4" ry="4" style="stroke:#181818;stroke-width:1;"/><text fill="#000000" font-family="Arial" font-size="13" lengthAdjust="spacing" textLength="9.3882" x="493" y="214.1938">N</text></g><!--link S to R_houses--><g class="link" data-entity-1="S" data-entity-2="R_houses" data-source-line="137" data-uid="lnk25" id="link_S_R_houses"><path codeLine="137" d="M282.4,203 C320.96,203 348.98,203 372.18,203" fill="none" id="S-R_houses" style="stroke:#181818;stroke-width:1;"/><line style="stroke:#181818;stroke-width:1;" x1="278.4" x2="278.4" y1="207" y2="199"/><line style="stroke:#181818;stroke-width:1;" x1="281.4" x2="281.4" y1="207" y2="199"/><line style="stroke:#181818;stroke-width:1;" x1="282.4" x2="274.4" y1="203" y2="203"/><line style="stroke:#181818;stroke-width:1;" x1="382.18" x2="390.18" y1="203" y2="197"/><line style="stroke:#181818;stroke-width:1;" x1="382.18" x2="390.18" y1="203" y2="209"/><line style="stroke:#181818;stroke-width:1;" x1="382.18" x2="390.18" y1="203" y2="203"/><ellipse cx="376.18" cy="203" fill="none" rx="4" ry="4" style="stroke:#181818;stroke-width:1;"/><text fill="#000000" font-family="Arial" font-size="13" lengthAdjust="spacing" textLength="7.23" x="305" y="200.1938">1</text></g><!--link R_houses to A--><g class="link" data-entity-1="R_houses" data-entity-2="A" data-source-line="138" data-uid="lnk26" id="link_R_houses_A"><path codeLine="138" d="M420.9516,199.959 C444.0616,195.939 478.4573,189.9506 520.2273,182.6706" fill="none" id="R_houses-A" style="stroke:#181818;stroke-width:1;"/><line style="stroke:#181818;stroke-width:1;" x1="417.6963" x2="416.3253" y1="204.5853" y2="196.7037"/><line style="stroke:#181818;stroke-width:1;" x1="420.6519" x2="419.2809" y1="204.0712" y2="196.1895"/><line style="stroke:#181818;stroke-width:1;" x1="420.9516" x2="413.07" y1="199.959" y2="201.33"/><line style="stroke:#181818;stroke-width:1;" x1="530.0788" x2="536.9298" y1="180.9536" y2="173.6691"/><line style="stroke:#181818;stroke-width:1;" x1="530.0788" x2="538.9902" y1="180.9536" y2="185.4909"/><line style="stroke:#181818;stroke-width:1;" x1="530.0788" x2="537.96" y1="180.9536" y2="179.58"/><ellipse cx="524.1679" cy="181.9838" fill="none" rx="4" ry="4" style="stroke:#181818;stroke-width:1;"/><text fill="#000000" font-family="Arial" font-size="13" lengthAdjust="spacing" textLength="9.3882" x="493" y="184.1938">N</text></g><!--link A to R_attachments--><g class="link" data-entity-1="A" data-entity-2="R_attachments" data-source-line="140" data-uid="lnk27" id="link_A_R_attachments"><path codeLine="140" d="M634.9457,158.173 C671.9557,148.223 696.9967,141.4912 717.1667,136.0712" fill="none" id="A-R_attachments" style="stroke:#181818;stroke-width:1;"/><line style="stroke:#181818;stroke-width:1;" x1="632.1213" x2="630.0443" y1="163.0743" y2="155.3487"/><line style="stroke:#181818;stroke-width:1;" x1="635.0185" x2="632.9415" y1="162.2954" y2="154.5698"/><line style="stroke:#181818;stroke-width:1;" x1="634.9457" x2="627.22" y1="158.173" y2="160.25"/><line style="stroke:#181818;stroke-width:1;" x1="726.8241" x2="732.9929" y1="133.4761" y2="125.6056"/><line style="stroke:#181818;stroke-width:1;" x1="726.8241" x2="736.1071" y1="133.4761" y2="137.1944"/><line style="stroke:#181818;stroke-width:1;" x1="726.8241" x2="734.55" y1="133.4761" y2="131.4"/><ellipse cx="721.0296" cy="135.0331" fill="none" rx="4" ry="4" style="stroke:#181818;stroke-width:1;"/><text fill="#000000" font-family="Arial" font-size="13" lengthAdjust="spacing" textLength="7.23" x="663" y="147.1938">1</text></g><!--link R_attachments to AI--><g class="link" data-entity-1="R_attachments" data-entity-2="AI" data-source-line="141" data-uid="lnk28" id="link_R_attachments_AI"><path codeLine="141" d="M761.2245,123.0082 C782.4545,114.9082 816.0408,102.112 858.9808,85.742" fill="none" id="R_attachments-AI" style="stroke:#181818;stroke-width:1;"/><line style="stroke:#181818;stroke-width:1;" x1="758.9131" x2="756.0613" y1="128.1713" y2="120.6969"/><line style="stroke:#181818;stroke-width:1;" x1="761.716" x2="758.8643" y1="127.1019" y2="119.6275"/><line style="stroke:#181818;stroke-width:1;" x1="761.2245" x2="753.75" y1="123.0082" y2="125.86"/><line style="stroke:#181818;stroke-width:1;" x1="868.3248" x2="873.6627" y1="82.1798" y2="73.7236"/><line style="stroke:#181818;stroke-width:1;" x1="868.3248" x2="877.9373" y1="82.1798" y2="84.9364"/><line style="stroke:#181818;stroke-width:1;" x1="868.3248" x2="875.8" y1="82.1798" y2="79.33"/><ellipse cx="862.7184" cy="84.3171" fill="none" rx="4" ry="4" style="stroke:#181818;stroke-width:1;"/><text fill="#000000" font-family="Arial" font-size="13" lengthAdjust="spacing" textLength="9.3882" x="819" y="96.1938">N</text></g><!--link U to R_applies--><g class="link" data-entity-1="U" data-entity-2="R_applies" data-source-line="143" data-uid="lnk29" id="link_U_R_applies"><path codeLine="143" d="M275.55,362 C314.34,362 347.77,362 372.3,362" fill="none" id="U-R_applies" style="stroke:#181818;stroke-width:1;"/><line style="stroke:#181818;stroke-width:1;" x1="271.55" x2="271.55" y1="366" y2="358"/><line style="stroke:#181818;stroke-width:1;" x1="274.55" x2="274.55" y1="366" y2="358"/><line style="stroke:#181818;stroke-width:1;" x1="275.55" x2="267.55" y1="362" y2="362"/><line style="stroke:#181818;stroke-width:1;" x1="382.3" x2="390.3" y1="362" y2="356"/><line style="stroke:#181818;stroke-width:1;" x1="382.3" x2="390.3" y1="362" y2="368"/><line style="stroke:#181818;stroke-width:1;" x1="382.3" x2="390.3" y1="362" y2="362"/><ellipse cx="376.3" cy="362" fill="none" rx="4" ry="4" style="stroke:#181818;stroke-width:1;"/><text fill="#000000" font-family="Arial" font-size="13" lengthAdjust="spacing" textLength="7.23" x="305" y="359.1938">1</text></g><!--link R_applies to App--><g class="link" data-entity-1="R_applies" data-entity-2="App" data-source-line="144" data-uid="lnk30" id="link_R_applies_App"><path codeLine="144" d="M422.63,362 C445.77,362 474.26,362 514.71,362" fill="none" id="R_applies-App" style="stroke:#181818;stroke-width:1;"/><line style="stroke:#181818;stroke-width:1;" x1="418.63" x2="418.63" y1="366" y2="358"/><line style="stroke:#181818;stroke-width:1;" x1="421.63" x2="421.63" y1="366" y2="358"/><line style="stroke:#181818;stroke-width:1;" x1="422.63" x2="414.63" y1="362" y2="362"/><line style="stroke:#181818;stroke-width:1;" x1="524.71" x2="532.71" y1="362" y2="356"/><line style="stroke:#181818;stroke-width:1;" x1="524.71" x2="532.71" y1="362" y2="368"/><line style="stroke:#181818;stroke-width:1;" x1="524.71" x2="532.71" y1="362" y2="362"/><ellipse cx="518.71" cy="362" fill="none" rx="4" ry="4" style="stroke:#181818;stroke-width:1;"/><text fill="#000000" font-family="Arial" font-size="13" lengthAdjust="spacing" textLength="9.3882" x="493" y="359.1938">N</text></g><!--link A to R_med--><g class="link" data-entity-1="A" data-entity-2="R_med" data-source-line="146" data-uid="lnk31" id="link_A_R_med"><path codeLine="146" d="M634.5097,195.4302 C645.6597,199.7502 650.34,200.78 662,203 C687.44,207.84 700.2804,207.4129 715.7304,205.5429" fill="none" id="A-R_med" style="stroke:#181818;stroke-width:1;"/><line style="stroke:#181818;stroke-width:1;" x1="629.3347" x2="632.2249" y1="197.7149" y2="190.2553"/><line style="stroke:#181818;stroke-width:1;" x1="632.1321" x2="635.0223" y1="198.7988" y2="191.3391"/><line style="stroke:#181818;stroke-width:1;" x1="634.5097" x2="627.05" y1="195.4302" y2="192.54"/><line style="stroke:#181818;stroke-width:1;" x1="725.658" x2="732.879" y1="204.3413" y2="197.4235"/><line style="stroke:#181818;stroke-width:1;" x1="725.658" x2="734.321" y1="204.3413" y2="209.3365"/><line style="stroke:#181818;stroke-width:1;" x1="725.658" x2="733.6" y1="204.3413" y2="203.38"/><ellipse cx="719.7014" cy="205.0622" fill="none" rx="4" ry="4" style="stroke:#181818;stroke-width:1;"/><text fill="#000000" font-family="Arial" font-size="13" lengthAdjust="spacing" textLength="7.23" x="663" y="200.1938">1</text></g><!--link R_med to MR--><g class="link" data-entity-1="R_med" data-entity-2="MR" data-source-line="147" data-uid="lnk32" id="link_R_med_MR"><path codeLine="147" d="M764.2722,202.8327 C784.2122,203.7127 802.3475,204.5167 840.6575,206.2067" fill="none" id="R_med-MR" style="stroke:#181818;stroke-width:1;"/><line style="stroke:#181818;stroke-width:1;" x1="760.0998" x2="760.4525" y1="206.6525" y2="198.6602"/><line style="stroke:#181818;stroke-width:1;" x1="763.0968" x2="763.4496" y1="206.7847" y2="198.7925"/><line style="stroke:#181818;stroke-width:1;" x1="764.2722" x2="756.28" y1="202.8327" y2="202.48"/><line style="stroke:#181818;stroke-width:1;" x1="850.6478" x2="858.9044" y1="206.6474" y2="201.0058"/><line style="stroke:#181818;stroke-width:1;" x1="850.6478" x2="858.3756" y1="206.6474" y2="212.9942"/><line style="stroke:#181818;stroke-width:1;" x1="850.6478" x2="858.64" y1="206.6474" y2="207"/><ellipse cx="844.6536" cy="206.383" fill="none" rx="4" ry="4" style="stroke:#181818;stroke-width:1;"/><text fill="#000000" font-family="Arial" font-size="13" lengthAdjust="spacing" textLength="9.3882" x="819" y="203.1938">N</text></g><!--link U to R_performs--><g class="link" data-entity-1="U" data-entity-2="R_performs" data-source-line="149" data-uid="lnk33" id="link_U_R_performs"><path codeLine="149" d="M274.2304,390.1514 C315.5604,417.3814 358.5905,445.7247 379.6205,459.5847" fill="none" id="U-R_performs" style="stroke:#181818;stroke-width:1;"/><line style="stroke:#181818;stroke-width:1;" x1="268.6895" x2="273.0909" y1="391.2909" y2="384.6105"/><line style="stroke:#181818;stroke-width:1;" x1="271.1947" x2="275.596" y1="392.9414" y2="386.261"/><line style="stroke:#181818;stroke-width:1;" x1="274.2304" x2="267.55" y1="390.1514" y2="385.75"/><line style="stroke:#181818;stroke-width:1;" x1="387.9702" x2="397.9518" y1="465.0876" y2="464.4802"/><line style="stroke:#181818;stroke-width:1;" x1="387.9702" x2="391.3482" y1="465.0876" y2="474.4998"/><line style="stroke:#181818;stroke-width:1;" x1="387.9702" x2="394.65" y1="465.0876" y2="469.49"/><ellipse cx="382.9604" cy="461.7859" fill="none" rx="4" ry="4" style="stroke:#181818;stroke-width:1;"/><text fill="#000000" font-family="Arial" font-size="13" lengthAdjust="spacing" textLength="7.23" x="305" y="408.1938">1</text></g><!--link R_performs to AL--><g class="link" data-entity-1="R_performs" data-entity-2="AL" data-source-line="150" data-uid="lnk34" id="link_R_performs_AL"><path codeLine="150" d="M419.745,478.9239 C442.375,485.7939 479.9956,497.203 522.4056,510.073" fill="none" id="R_performs-AL" style="stroke:#181818;stroke-width:1;"/><line style="stroke:#181818;stroke-width:1;" x1="414.7556" x2="417.0795" y1="481.5895" y2="473.9344"/><line style="stroke:#181818;stroke-width:1;" x1="417.6262" x2="419.9501" y1="482.4609" y2="474.8059"/><line style="stroke:#181818;stroke-width:1;" x1="419.745" x2="412.09" y1="478.9239" y2="476.6"/><line style="stroke:#181818;stroke-width:1;" x1="531.9747" x2="541.3723" y1="512.9769" y2="509.5585"/><line style="stroke:#181818;stroke-width:1;" x1="531.9747" x2="537.8877" y1="512.9769" y2="521.0415"/><line style="stroke:#181818;stroke-width:1;" x1="531.9747" x2="539.63" y1="512.9769" y2="515.3"/><ellipse cx="526.2333" cy="511.2345" fill="none" rx="4" ry="4" style="stroke:#181818;stroke-width:1;"/><text fill="#000000" font-family="Arial" font-size="13" lengthAdjust="spacing" textLength="9.3882" x="493" y="498.1938">N</text></g><!--SRC=[VLLBRzim3BxxLn2vR1tW0RlkCC18iore-a3Id8R1O2qs5YfBWYIt2zhzzr6s_CZQxP1493-I7ocAGQNCKoD_INt8ti5I4MfOrgHp7uwAOBKzXtlZ8DG4baAEmjWWZGQhCB2XoVo3r1OTDY3e7biLlXeThh0XA9n4DRFVOVLmSARLOcaKntogPQ1CqNs0OC39Gnr0I4TLJ90ncvKECaZoy3ugKHyKdvzagE61Ze0XE7dN1jP9xQMWZgWZ57WdbGp7iunYW2CizhlLTW7eOG_F6S07a08-myq5d_ESlrfFJZDbFbA3KcM_iz5tztsrkKtkkxVTasl5XMCLIgdlpJn2SRM-B3PTWEBj0EP9aokbuAElIOL1I86zfOhRmASxHzIXw1T_uu7AXfFMqUG3XjQ_pikVRwi- -Vf_sSFHqYcLrfqqehYvsQoNnUtw-geFP-tRyL8arB91rOT2QvMiK8TKv2kkbwjpZhqfjwlbzVQyYt-vVJlyF2xFXN5Yu2umn1_hp2EFWpiXlpzVtvQRwsyzzSq_GbV1fEAndqAk1js1mf0YIHqao8QuaiR6HEzWIzQHvuGOv2DDumdc4PMF8qvDow-6klS5f9IqFWxte_GjAZ1QySZoA5Re2HR3J7Q4st8SqH6G9kNZ33GCpocmRzWSbrfu2cFLWJxofITG9vTn2BYu2oAR2j64tJwG3cXyeBKKWejIKZzuO1OsBeYA6aPmJIDxo7_qo9yvxBDJmdFRBZiXEJSLsOpQYM7TtmAtc6_ErzpTM8YGo6z4CCUkxTg4pdwM9GCiUEHzL_EsZCV9K1lcFPXwOJBo_M9Lnm87n4mpWyN97uCaQPO2VTcGuBUX4eIboMp9nIKxk0zYB7HfjEQjEDr1_eMVmrJyL3WRHb2tFIjqGcfKdIhRmyjBdfldL3u_YCMdHPQ4P2gYzcgHPRi9t3TaX2VnRuTYSfZrP_IQwmRNzU0xOvOQD_abUV3XNVGw8RToT8ZdPE35yZh1qDhHOLGCAJQ3Lnt_QpoFBPbkAtHoGw4smlT29Lsbw0y0]--></g></svg>