<svg xmlns="http://www.w3.org/2000/svg" xmlns:xlink="http://www.w3.org/1999/xlink" contentStyleType="text/css" data-diagram-type="CLASS" height="976px" preserveAspectRatio="none" style="width:579px;height:976px;background:#FFFFFF;" version="1.1" viewBox="0 0 579 976" width="579px" zoomAndPan="magnify"><defs/><g><!--class U--><g class="entity" data-entity="U" data-source-line="3" data-uid="ent0002" id="entity_U"><rect fill="#F1F1F1" height="207.5234" rx="2.5" ry="2.5" style="stroke:#181818;stroke-width:0.5;" width="110.0615" x="324.5" y="7"/><ellipse cx="361.3263" cy="23" fill="#ADD1B2" rx="11" ry="11" style="stroke:#181818;stroke-width:1;"/><path d="M359.8419,17.5781 L359.8419,17.5781 Z M366.9201,26 L366.0919,29.5156 L356.9826,29.5156 L356.9826,28.6875 Q358.0294,28.5781 358.2794,28.375 Q358.6232,28.0938 358.6232,27.2031 L358.6232,19.0938 Q358.6232,18.1563 358.2794,17.875 Q358.0607,17.6875 356.9826,17.6094 L356.9826,16.7656 L366.0294,16.7656 L366.0763,19.7813 L365.2326,19.7813 Q365.0138,18.3906 364.6701,18.1406 Q364.3107,17.8594 362.9826,17.8594 L360.5919,17.8594 Q360.2169,17.8594 360.2169,17.8594 Q360.2013,17.875 360.2013,18.2188 L360.2013,22.2188 L362.6544,22.2188 Q363.6076,22.2188 363.8732,21.9375 Q364.0919,21.7031 364.2638,20.5156 L365.1076,20.5156 L365.1076,25.1719 L364.2638,25.1719 Q364.0919,23.9063 363.8419,23.6719 Q363.5919,23.4375 362.6544,23.4375 L360.2013,23.4375 L360.2013,27.7813 Q360.2013,28.2031 360.4513,28.2969 Q360.8263,28.4219 362.6857,28.4219 Q364.1544,28.4219 364.7951,27.9688 Q365.4357,27.5156 366.0607,26 L366.9201,26 Z " fill="#000000"/><text fill="#000000" font-family="sans-serif" font-size="14" lengthAdjust="spacing" textLength="29.5586" x="380.1766" y="29.894">User</text><line style="stroke:#181818;stroke-width:0.5;" x1="325.5" x2="433.5615" y1="39" y2="39"/><ellipse cx="335.5" cy="54.4702" fill="#000000" rx="3" ry="3" style="stroke:#000000;stroke-width:1;"/><text fill="#000000" font-family="sans-serif" font-size="14" lengthAdjust="spacing" textLength="56.7861" x="344.5" y="59.8643">id : UUID</text><line style="stroke:#181818;stroke-width:1;" x1="325.5" x2="433.5615" y1="66.9404" y2="66.9404"/><text fill="#000000" font-family="sans-serif" font-size="14" lengthAdjust="spacing" textLength="62.2549" x="330.5" y="87.8047">username</text><text fill="#000000" font-family="sans-serif" font-size="14" lengthAdjust="spacing" textLength="33.4551" x="330.5" y="107.7451">email</text><text fill="#000000" font-family="sans-serif" font-size="14" lengthAdjust="spacing" textLength="98.0615" x="330.5" y="127.6855">password_hash</text><text fill="#000000" font-family="sans-serif" font-size="14" lengthAdjust="spacing" textLength="23.3447" x="330.5" y="147.626">role</text><text fill="#000000" font-family="sans-serif" font-size="14" lengthAdjust="spacing" textLength="86.3721" x="330.5" y="167.5664">verified_email</text><text fill="#000000" font-family="sans-serif" font-size="14" lengthAdjust="spacing" textLength="66.1582" x="330.5" y="187.5068">created_at</text><text fill="#000000" font-family="sans-serif" font-size="14" lengthAdjust="spacing" textLength="70.0684" x="330.5" y="207.4473">updated_at</text></g><!--class S--><g class="entity" data-entity="S" data-source-line="15" data-uid="ent0003" id="entity_S"><rect fill="#F1F1F1" height="147.7021" rx="2.5" ry="2.5" style="stroke:#181818;stroke-width:0.5;" width="87.4961" x="137" y="37"/><ellipse cx="157.012" cy="53" fill="#ADD1B2" rx="11" ry="11" style="stroke:#181818;stroke-width:1;"/><path d="M155.5276,47.5781 L155.5276,47.5781 Z M162.6057,56 L161.7776,59.5156 L152.6682,59.5156 L152.6682,58.6875 Q153.7151,58.5781 153.9651,58.375 Q154.3088,58.0938 154.3088,57.2031 L154.3088,49.0938 Q154.3088,48.1563 153.9651,47.875 Q153.7463,47.6875 152.6682,47.6094 L152.6682,46.7656 L161.7151,46.7656 L161.762,49.7813 L160.9182,49.7813 Q160.6995,48.3906 160.3557,48.1406 Q159.9963,47.8594 158.6682,47.8594 L156.2776,47.8594 Q155.9026,47.8594 155.9026,47.8594 Q155.887,47.875 155.887,48.2188 L155.887,52.2188 L158.3401,52.2188 Q159.2932,52.2188 159.5588,51.9375 Q159.7776,51.7031 159.9495,50.5156 L160.7932,50.5156 L160.7932,55.1719 L159.9495,55.1719 Q159.7776,53.9063 159.5276,53.6719 Q159.2776,53.4375 158.3401,53.4375 L155.887,53.4375 L155.887,57.7813 Q155.887,58.2031 156.137,58.2969 Q156.512,58.4219 158.3713,58.4219 Q159.8401,58.4219 160.4807,57.9688 Q161.1213,57.5156 161.7463,56 L162.6057,56 Z " fill="#000000"/><text fill="#000000" font-family="sans-serif" font-size="14" lengthAdjust="spacing" textLength="44.3584" x="172.1257" y="59.894">Shelter</text><line style="stroke:#181818;stroke-width:0.5;" x1="138" x2="223.4961" y1="69" y2="69"/><ellipse cx="148" cy="84.4702" fill="#000000" rx="3" ry="3" style="stroke:#000000;stroke-width:1;"/><text fill="#000000" font-family="sans-serif" font-size="14" lengthAdjust="spacing" textLength="56.7861" x="157" y="89.8643">id : UUID</text><line style="stroke:#181818;stroke-width:1;" x1="138" x2="223.4961" y1="96.9404" y2="96.9404"/><text fill="#000000" font-family="sans-serif" font-size="14" lengthAdjust="spacing" textLength="35.0205" x="143" y="117.8047">name</text><text fill="#000000" font-family="sans-serif" font-size="14" lengthAdjust="spacing" textLength="75.4961" x="143" y="137.7451">contact_info</text><text fill="#000000" font-family="sans-serif" font-size="14" lengthAdjust="spacing" textLength="66.1582" x="143" y="157.6855">created_at</text><text fill="#000000" font-family="sans-serif" font-size="14" lengthAdjust="spacing" textLength="70.0684" x="143" y="177.626">updated_at</text></g><!--class A--><g class="entity" data-entity="A" data-source-line="24" data-uid="ent0004" id="entity_A"><rect fill="#F1F1F1" height="327.166" rx="2.5" ry="2.5" style="stroke:#181818;stroke-width:0.5;" width="89.0547" x="147" y="295"/><ellipse cx="168.4178" cy="311" fill="#ADD1B2" rx="11" ry="11" style="stroke:#181818;stroke-width:1;"/><path d="M166.9334,305.5781 L166.9334,305.5781 Z M174.0115,314 L173.1834,317.5156 L164.074,317.5156 L164.074,316.6875 Q165.1209,316.5781 165.3709,316.375 Q165.7146,316.0938 165.7146,315.2031 L165.7146,307.0938 Q165.7146,306.1563 165.3709,305.875 Q165.1521,305.6875 164.074,305.6094 L164.074,304.7656 L173.1209,304.7656 L173.1678,307.7813 L172.324,307.7813 Q172.1053,306.3906 171.7615,306.1406 Q171.4021,305.8594 170.074,305.8594 L167.6834,305.8594 Q167.3084,305.8594 167.3084,305.8594 Q167.2928,305.875 167.2928,306.2188 L167.2928,310.2188 L169.7459,310.2188 Q170.699,310.2188 170.9646,309.9375 Q171.1834,309.7031 171.3553,308.5156 L172.199,308.5156 L172.199,313.1719 L171.3553,313.1719 Q171.1834,311.9063 170.9334,311.6719 Q170.6834,311.4375 169.7459,311.4375 L167.2928,311.4375 L167.2928,315.7813 Q167.2928,316.2031 167.5428,316.2969 Q167.9178,316.4219 169.7771,316.4219 Q171.2459,316.4219 171.8865,315.9688 Q172.5271,315.5156 173.1521,314 L174.0115,314 Z " fill="#000000"/><text fill="#000000" font-family="sans-serif" font-size="14" lengthAdjust="spacing" textLength="42.793" x="183.8439" y="317.894">Animal</text><line style="stroke:#181818;stroke-width:0.5;" x1="148" x2="235.0547" y1="327" y2="327"/><ellipse cx="158" cy="342.4702" fill="#000000" rx="3" ry="3" style="stroke:#000000;stroke-width:1;"/><text fill="#000000" font-family="sans-serif" font-size="14" lengthAdjust="spacing" textLength="56.7861" x="167" y="347.8643">id : UUID</text><line style="stroke:#181818;stroke-width:1;" x1="148" x2="235.0547" y1="354.9404" y2="354.9404"/><text fill="#000000" font-family="sans-serif" font-size="14" lengthAdjust="spacing" textLength="56.8135" x="153" y="375.8047">owner_id</text><text fill="#000000" font-family="sans-serif" font-size="14" lengthAdjust="spacing" textLength="60.7031" x="153" y="395.7451">shelter_id</text><text fill="#000000" font-family="sans-serif" font-size="14" lengthAdjust="spacing" textLength="35.0205" x="153" y="415.6855">name</text><text fill="#000000" font-family="sans-serif" font-size="14" lengthAdjust="spacing" textLength="47.4688" x="153" y="435.626">species</text><text fill="#000000" font-family="sans-serif" font-size="14" lengthAdjust="spacing" textLength="35.8066" x="153" y="455.5664">breed</text><text fill="#000000" font-family="sans-serif" font-size="14" lengthAdjust="spacing" textLength="21.7861" x="153" y="475.5068">sex</text><text fill="#000000" font-family="sans-serif" font-size="14" lengthAdjust="spacing" textLength="77.0547" x="153" y="495.4473">age_months</text><text fill="#000000" font-family="sans-serif" font-size="14" lengthAdjust="spacing" textLength="67.7031" x="153" y="515.3877">description</text><text fill="#000000" font-family="sans-serif" font-size="14" lengthAdjust="spacing" textLength="37.3516" x="153" y="535.3281">status</text><text fill="#000000" font-family="sans-serif" font-size="14" lengthAdjust="spacing" textLength="48.2549" x="153" y="555.2686">location</text><text fill="#000000" font-family="sans-serif" font-size="14" lengthAdjust="spacing" textLength="66.1582" x="153" y="575.209">created_at</text><text fill="#000000" font-family="sans-serif" font-size="14" lengthAdjust="spacing" textLength="70.0684" x="153" y="595.1494">updated_at</text><text fill="#000000" font-family="sans-serif" font-size="14" lengthAdjust="spacing" textLength="65.3926" x="153" y="615.0898">deleted_at</text></g><!--class AI--><g class="entity" data-entity="AI" data-source-line="42" data-uid="ent0005" id="entity_AI"><rect fill="#F1F1F1" height="167.6426" rx="2.5" ry="2.5" style="stroke:#181818;stroke-width:0.5;" width="129.2412" x="7" y="751.5"/><ellipse cx="22" cy="767.5" fill="#ADD1B2" rx="11" ry="11" style="stroke:#181818;stroke-width:1;"/><path d="M20.5156,762.0781 L20.5156,762.0781 Z M27.5938,770.5 L26.7656,774.0156 L17.6563,774.0156 L17.6563,773.1875 Q18.7031,773.0781 18.9531,772.875 Q19.2969,772.5938 19.2969,771.7031 L19.2969,763.5938 Q19.2969,762.6563 18.9531,762.375 Q18.7344,762.1875 17.6563,762.1094 L17.6563,761.2656 L26.7031,761.2656 L26.75,764.2813 L25.9063,764.2813 Q25.6875,762.8906 25.3438,762.6406 Q24.9844,762.3594 23.6563,762.3594 L21.2656,762.3594 Q20.8906,762.3594 20.8906,762.3594 Q20.875,762.375 20.875,762.7188 L20.875,766.7188 L23.3281,766.7188 Q24.2813,766.7188 24.5469,766.4375 Q24.7656,766.2031 24.9375,765.0156 L25.7813,765.0156 L25.7813,769.6719 L24.9375,769.6719 Q24.7656,768.4063 24.5156,768.1719 Q24.2656,767.9375 23.3281,767.9375 L20.875,767.9375 L20.875,772.2813 Q20.875,772.7031 21.125,772.7969 Q21.5,772.9219 23.3594,772.9219 Q24.8281,772.9219 25.4688,772.4688 Q26.1094,772.0156 26.7344,770.5 L27.5938,770.5 Z " fill="#000000"/><text fill="#000000" font-family="sans-serif" font-size="14" lengthAdjust="spacing" textLength="97.2412" x="36" y="774.394">ANIMALIMAGE</text><line style="stroke:#181818;stroke-width:0.5;" x1="8" x2="135.2412" y1="783.5" y2="783.5"/><ellipse cx="18" cy="798.9702" fill="#000000" rx="3" ry="3" style="stroke:#000000;stroke-width:1;"/><text fill="#000000" font-family="sans-serif" font-size="14" lengthAdjust="spacing" textLength="56.7861" x="27" y="804.3643">id : UUID</text><line style="stroke:#181818;stroke-width:1;" x1="8" x2="135.2412" y1="811.4404" y2="811.4404"/><text fill="#000000" font-family="sans-serif" font-size="14" lengthAdjust="spacing" textLength="72.3789" x="13" y="832.3047">owner_type</text><text fill="#000000" font-family="sans-serif" font-size="14" lengthAdjust="spacing" textLength="56.8135" x="13" y="852.2451">owner_id</text><text fill="#000000" font-family="sans-serif" font-size="14" lengthAdjust="spacing" textLength="15.5586" x="13" y="872.1855">url</text><text fill="#000000" font-family="sans-serif" font-size="14" lengthAdjust="spacing" textLength="45.1377" x="13" y="892.126">alt_text</text><text fill="#000000" font-family="sans-serif" font-size="14" lengthAdjust="spacing" textLength="66.1582" x="13" y="912.0664">created_at</text></g><!--class App--><g class="entity" data-entity="App" data-source-line="52" data-uid="ent0006" id="entity_App"><rect fill="#F1F1F1" height="207.5234" rx="2.5" ry="2.5" style="stroke:#181818;stroke-width:0.5;" width="100.4893" x="435.5" y="731.5"/><ellipse cx="450.5" cy="747.5" fill="#ADD1B2" rx="11" ry="11" style="stroke:#181818;stroke-width:1;"/><path d="M449.0156,742.0781 L449.0156,742.0781 Z M456.0938,750.5 L455.2656,754.0156 L446.1563,754.0156 L446.1563,753.1875 Q447.2031,753.0781 447.4531,752.875 Q447.7969,752.5938 447.7969,751.7031 L447.7969,743.5938 Q447.7969,742.6563 447.4531,742.375 Q447.2344,742.1875 446.1563,742.1094 L446.1563,741.2656 L455.2031,741.2656 L455.25,744.2813 L454.4063,744.2813 Q454.1875,742.8906 453.8438,742.6406 Q453.4844,742.3594 452.1563,742.3594 L449.7656,742.3594 Q449.3906,742.3594 449.3906,742.3594 Q449.375,742.375 449.375,742.7188 L449.375,746.7188 L451.8281,746.7188 Q452.7813,746.7188 453.0469,746.4375 Q453.2656,746.2031 453.4375,745.0156 L454.2813,745.0156 L454.2813,749.6719 L453.4375,749.6719 Q453.2656,748.4063 453.0156,748.1719 Q452.7656,747.9375 451.8281,747.9375 L449.375,747.9375 L449.375,752.2813 Q449.375,752.7031 449.625,752.7969 Q450,752.9219 451.8594,752.9219 Q453.3281,752.9219 453.9688,752.4688 Q454.6094,752.0156 455.2344,750.5 L456.0938,750.5 Z " fill="#000000"/><text fill="#000000" font-family="sans-serif" font-size="14" lengthAdjust="spacing" textLength="68.4893" x="464.5" y="754.394">Application</text><line style="stroke:#181818;stroke-width:0.5;" x1="436.5" x2="534.9893" y1="763.5" y2="763.5"/><ellipse cx="446.5" cy="778.9702" fill="#000000" rx="3" ry="3" style="stroke:#000000;stroke-width:1;"/><text fill="#000000" font-family="sans-serif" font-size="14" lengthAdjust="spacing" textLength="56.7861" x="455.5" y="784.3643">id : UUID</text><line style="stroke:#181818;stroke-width:1;" x1="436.5" x2="534.9893" y1="791.4404" y2="791.4404"/><text fill="#000000" font-family="sans-serif" font-size="14" lengthAdjust="spacing" textLength="26.4619" x="441.5" y="812.3047">type</text><text fill="#000000" font-family="sans-serif" font-size="14" lengthAdjust="spacing" textLength="59.9238" x="441.5" y="832.2451">animal_id</text><text fill="#000000" font-family="sans-serif" font-size="14" lengthAdjust="spacing" textLength="74.7236" x="441.5" y="852.1855">applicant_id</text><text fill="#000000" font-family="sans-serif" font-size="14" lengthAdjust="spacing" textLength="76.2617" x="441.5" y="872.126">attachments</text><text fill="#000000" font-family="sans-serif" font-size="14" lengthAdjust="spacing" textLength="37.3516" x="441.5" y="892.0664">status</text><text fill="#000000" font-family="sans-serif" font-size="14" lengthAdjust="spacing" textLength="80.1582" x="441.5" y="912.0068">submitted_at</text><text fill="#000000" font-family="sans-serif" font-size="14" lengthAdjust="spacing" textLength="75.4893" x="441.5" y="931.9473">reviewed_at</text></g><!--class MR--><g class="entity" data-entity="MR" data-source-line="64" data-uid="ent0007" id="entity_MR"><rect fill="#F1F1F1" height="267.3447" rx="2.5" ry="2.5" style="stroke:#181818;stroke-width:0.5;" width="125.3721" x="177" y="702"/><ellipse cx="192" cy="718" fill="#ADD1B2" rx="11" ry="11" style="stroke:#181818;stroke-width:1;"/><path d="M190.5156,712.5781 L190.5156,712.5781 Z M197.5938,721 L196.7656,724.5156 L187.6563,724.5156 L187.6563,723.6875 Q188.7031,723.5781 188.9531,723.375 Q189.2969,723.0938 189.2969,722.2031 L189.2969,714.0938 Q189.2969,713.1563 188.9531,712.875 Q188.7344,712.6875 187.6563,712.6094 L187.6563,711.7656 L196.7031,711.7656 L196.75,714.7813 L195.9063,714.7813 Q195.6875,713.3906 195.3438,713.1406 Q194.9844,712.8594 193.6563,712.8594 L191.2656,712.8594 Q190.8906,712.8594 190.8906,712.8594 Q190.875,712.875 190.875,713.2188 L190.875,717.2188 L193.3281,717.2188 Q194.2813,717.2188 194.5469,716.9375 Q194.7656,716.7031 194.9375,715.5156 L195.7813,715.5156 L195.7813,720.1719 L194.9375,720.1719 Q194.7656,718.9063 194.5156,718.6719 Q194.2656,718.4375 193.3281,718.4375 L190.875,718.4375 L190.875,722.7813 Q190.875,723.2031 191.125,723.2969 Q191.5,723.4219 193.3594,723.4219 Q194.8281,723.4219 195.4688,722.9688 Q196.1094,722.5156 196.7344,721 L197.5938,721 Z " fill="#000000"/><text fill="#000000" font-family="sans-serif" font-size="14" lengthAdjust="spacing" textLength="93.3721" x="206" y="724.894">MedicalRecord</text><line style="stroke:#181818;stroke-width:0.5;" x1="178" x2="301.3721" y1="734" y2="734"/><ellipse cx="188" cy="749.4702" fill="#000000" rx="3" ry="3" style="stroke:#000000;stroke-width:1;"/><text fill="#000000" font-family="sans-serif" font-size="14" lengthAdjust="spacing" textLength="56.7861" x="197" y="754.8643">id : UUID</text><line style="stroke:#181818;stroke-width:1;" x1="178" x2="301.3721" y1="761.9404" y2="761.9404"/><text fill="#000000" font-family="sans-serif" font-size="14" lengthAdjust="spacing" textLength="59.9238" x="183" y="782.8047">animal_id</text><text fill="#000000" font-family="sans-serif" font-size="14" lengthAdjust="spacing" textLength="73.9307" x="183" y="802.7451">record_type</text><text fill="#000000" font-family="sans-serif" font-size="14" lengthAdjust="spacing" textLength="27.248" x="183" y="822.6855">date</text><text fill="#000000" font-family="sans-serif" font-size="14" lengthAdjust="spacing" textLength="50.5791" x="183" y="842.626">provider</text><text fill="#000000" font-family="sans-serif" font-size="14" lengthAdjust="spacing" textLength="40.4688" x="183" y="862.5664">details</text><text fill="#000000" font-family="sans-serif" font-size="14" lengthAdjust="spacing" textLength="76.2617" x="183" y="882.5068">attachments</text><text fill="#000000" font-family="sans-serif" font-size="14" lengthAdjust="spacing" textLength="45.1309" x="183" y="902.4473">verified</text><text fill="#000000" font-family="sans-serif" font-size="14" lengthAdjust="spacing" textLength="67.7031" x="183" y="922.3877">verified_by</text><text fill="#000000" font-family="sans-serif" font-size="14" lengthAdjust="spacing" textLength="69.2686" x="183" y="942.3281">created_by</text><text fill="#000000" font-family="sans-serif" font-size="14" lengthAdjust="spacing" textLength="66.1582" x="183" y="962.2686">created_at</text></g><!--class AL--><g class="entity" data-entity="AL" data-source-line="79" data-uid="ent0008" id="entity_AL"><rect fill="#F1F1F1" height="207.5234" rx="2.5" ry="2.5" style="stroke:#181818;stroke-width:0.5;" width="87.2686" x="398" y="354.5"/><ellipse cx="413" cy="370.5" fill="#ADD1B2" rx="11" ry="11" style="stroke:#181818;stroke-width:1;"/><path d="M411.5156,365.0781 L411.5156,365.0781 Z M418.5938,373.5 L417.7656,377.0156 L408.6563,377.0156 L408.6563,376.1875 Q409.7031,376.0781 409.9531,375.875 Q410.2969,375.5938 410.2969,374.7031 L410.2969,366.5938 Q410.2969,365.6563 409.9531,365.375 Q409.7344,365.1875 408.6563,365.1094 L408.6563,364.2656 L417.7031,364.2656 L417.75,367.2813 L416.9063,367.2813 Q416.6875,365.8906 416.3438,365.6406 Q415.9844,365.3594 414.6563,365.3594 L412.2656,365.3594 Q411.8906,365.3594 411.8906,365.3594 Q411.875,365.375 411.875,365.7188 L411.875,369.7188 L414.3281,369.7188 Q415.2813,369.7188 415.5469,369.4375 Q415.7656,369.2031 415.9375,368.0156 L416.7813,368.0156 L416.7813,372.6719 L415.9375,372.6719 Q415.7656,371.4063 415.5156,371.1719 Q415.2656,370.9375 414.3281,370.9375 L411.875,370.9375 L411.875,375.2813 Q411.875,375.7031 412.125,375.7969 Q412.5,375.9219 414.3594,375.9219 Q415.8281,375.9219 416.4688,375.4688 Q417.1094,375.0156 417.7344,373.5 L418.5938,373.5 Z " fill="#000000"/><text fill="#000000" font-family="sans-serif" font-size="14" lengthAdjust="spacing" textLength="55.2686" x="427" y="377.394">AuditLog</text><line style="stroke:#181818;stroke-width:0.5;" x1="399" x2="484.2686" y1="386.5" y2="386.5"/><ellipse cx="409" cy="401.9702" fill="#000000" rx="3" ry="3" style="stroke:#000000;stroke-width:1;"/><text fill="#000000" font-family="sans-serif" font-size="14" lengthAdjust="spacing" textLength="56.7861" x="418" y="407.3643">id : UUID</text><line style="stroke:#181818;stroke-width:1;" x1="399" x2="484.2686" y1="414.4404" y2="414.4404"/><text fill="#000000" font-family="sans-serif" font-size="14" lengthAdjust="spacing" textLength="49.8066" x="404" y="435.3047">actor_id</text><text fill="#000000" font-family="sans-serif" font-size="14" lengthAdjust="spacing" textLength="37.3584" x="404" y="455.2451">action</text><text fill="#000000" font-family="sans-serif" font-size="14" lengthAdjust="spacing" textLength="70.0479" x="404" y="475.1855">target_type</text><text fill="#000000" font-family="sans-serif" font-size="14" lengthAdjust="spacing" textLength="54.4824" x="404" y="495.126">target_id</text><text fill="#000000" font-family="sans-serif" font-size="14" lengthAdjust="spacing" textLength="39.6963" x="404" y="515.0664">before</text><text fill="#000000" font-family="sans-serif" font-size="14" lengthAdjust="spacing" textLength="28.0137" x="404" y="535.0068">after</text><text fill="#000000" font-family="sans-serif" font-size="14" lengthAdjust="spacing" textLength="64.5723" x="404" y="554.9473">timestamp</text></g><!--link U to A--><g class="link" data-entity-1="U" data-entity-2="A" data-source-line="92" data-uid="lnk9" id="link_U_A"><path codeLine="92" d="M318.8684,169.0502 C296.5184,192.2402 277.57,215.32 260.5,245 C251.36,260.89 250.0362,261.4783 242.8762,279.0683" fill="none" id="U-A" style="stroke:#181818;stroke-width:1;"/><line style="stroke:#181818;stroke-width:1;" x1="318.7641" x2="324.5243" y1="163.3943" y2="168.9459"/><line style="stroke:#181818;stroke-width:1;" x1="316.6823" x2="322.4425" y1="165.5544" y2="171.106"/><line style="stroke:#181818;stroke-width:1;" x1="318.8684" x2="324.42" y1="169.0502" y2="163.29"/><line style="stroke:#181818;stroke-width:1;" x1="239.1061" x2="241.6472" y1="288.3303" y2="298.0021"/><line style="stroke:#181818;stroke-width:1;" x1="239.1061" x2="230.5328" y1="288.3303" y2="293.4779"/><line style="stroke:#181818;stroke-width:1;" x1="239.1061" x2="236.09" y1="288.3303" y2="295.74"/><ellipse cx="241.3682" cy="282.7731" fill="none" rx="4" ry="4" style="stroke:#181818;stroke-width:1;"/><text fill="#000000" font-family="sans-serif" font-size="13" lengthAdjust="spacing" textLength="30.3481" x="261.5" y="261.6597">owns</text></g><!--link S to A--><g class="link" data-entity-1="S" data-entity-2="A" data-source-line="93" data-uid="lnk10" id="link_S_A"><path codeLine="93" d="M178.3731,193.168 C177.9431,212.608 177.72,225.6 177.5,245 C177.4,253.89 177.18,256.12 177.5,265 C177.85,274.71 177.3817,266.714 177.9017,276.784" fill="none" id="S-A" style="stroke:#181818;stroke-width:1;"/><line style="stroke:#181818;stroke-width:1;" x1="174.4625" x2="182.4606" y1="189.0806" y2="189.2575"/><line style="stroke:#181818;stroke-width:1;" x1="174.3962" x2="182.3942" y1="192.0798" y2="192.2567"/><line style="stroke:#181818;stroke-width:1;" x1="178.3731" x2="178.55" y1="193.168" y2="185.17"/><line style="stroke:#181818;stroke-width:1;" x1="178.4174" x2="184.822" y1="286.7706" y2="294.4506"/><line style="stroke:#181818;stroke-width:1;" x1="178.4174" x2="172.838" y1="286.7706" y2="295.0694"/><line style="stroke:#181818;stroke-width:1;" x1="178.4174" x2="178.83" y1="286.7706" y2="294.76"/><ellipse cx="178.108" cy="280.7786" fill="none" rx="4" ry="4" style="stroke:#181818;stroke-width:1;"/><text fill="#000000" font-family="sans-serif" font-size="13" lengthAdjust="spacing" textLength="41.9199" x="178.5" y="261.6597">houses</text></g><!--link A to AI--><g class="link" data-entity-1="A" data-entity-2="AI" data-source-line="94" data-uid="lnk11" id="link_A_AI"><path codeLine="94" d="M140.9747,502.8311 C102.8747,538.3011 56.71,589.64 34.5,652 C23.22,683.67 22.4303,702.3762 31.1503,734.0362" fill="none" id="A-AI" style="stroke:#181818;stroke-width:1;"/><line style="stroke:#181818;stroke-width:1;" x1="141.1768" x2="146.6279" y1="497.1779" y2="503.0332"/><line style="stroke:#181818;stroke-width:1;" x1="138.981" x2="144.4322" y1="499.2221" y2="505.0774"/><line style="stroke:#181818;stroke-width:1;" x1="140.9747" x2="146.83" y1="502.8311" y2="497.38"/><line style="stroke:#181818;stroke-width:1;" x1="33.8057" x2="41.7146" y1="743.6772" y2="749.7968"/><line style="stroke:#181818;stroke-width:1;" x1="33.8057" x2="30.1454" y1="743.6772" y2="752.9832"/><line style="stroke:#181818;stroke-width:1;" x1="33.8057" x2="35.93" y1="743.6772" y2="751.39"/><ellipse cx="32.2125" cy="737.8926" fill="none" rx="4" ry="4" style="stroke:#181818;stroke-width:1;"/><text fill="#000000" font-family="sans-serif" font-size="13" lengthAdjust="spacing" textLength="20.96" x="35.5" y="668.6597">has</text></g><!--link A to AI--><g class="link" data-entity-1="A" data-entity-2="AI" data-source-line="102" data-uid="lnk17" id="link_A_AI"><path codeLine="102" d="M144.418,597.1087 C137.458,617.9687 132.97,631.76 126.5,652 C116.18,684.31 110.4686,702.755 101.1386,733.945" fill="none" id="A-AI-1" style="stroke:#181818;stroke-width:1;"/><line style="stroke:#181818;stroke-width:1;" x1="141.8896" x2="149.4784" y1="592.0484" y2="594.5804"/><line style="stroke:#181818;stroke-width:1;" x1="140.9401" x2="148.5289" y1="594.8941" y2="597.4261"/><line style="stroke:#181818;stroke-width:1;" x1="144.418" x2="146.95" y1="597.1087" y2="589.52"/><line style="stroke:#181818;stroke-width:1;" x1="98.2727" x2="101.7283" y1="743.5256" y2="752.9095"/><line style="stroke:#181818;stroke-width:1;" x1="98.2727" x2="90.2317" y1="743.5256" y2="749.4705"/><line style="stroke:#181818;stroke-width:1;" x1="98.2727" x2="95.98" y1="743.5256" y2="751.19"/><ellipse cx="99.9922" cy="737.7772" fill="none" rx="4" ry="4" style="stroke:#181818;stroke-width:1;"/><text fill="#000000" font-family="sans-serif" font-size="13" lengthAdjust="spacing" textLength="70.8145" x="127.5" y="668.6597">attachments</text></g><!--link A to App--><g class="link" data-entity-1="A" data-entity-2="App" data-source-line="95" data-uid="lnk12" id="link_A_App"><path codeLine="95" d="M239.9358,564.7889 C251.5458,586.6989 261.13,602.22 275.5,622 C322.75,687.04 376.3238,739.2534 421.8538,779.7734" fill="none" id="A-App" style="stroke:#181818;stroke-width:1;"/><line style="stroke:#181818;stroke-width:1;" x1="234.5284" x2="241.5973" y1="563.1273" y2="559.3816"/><line style="stroke:#181818;stroke-width:1;" x1="235.9331" x2="243.002" y1="565.7782" y2="562.0324"/><line style="stroke:#181818;stroke-width:1;" x1="239.9358" x2="236.19" y1="564.7889" y2="557.72"/><line style="stroke:#181818;stroke-width:1;" x1="429.3239" x2="439.2889" y1="786.4215" y2="787.2579"/><line style="stroke:#181818;stroke-width:1;" x1="429.3239" x2="431.3111" y1="786.4215" y2="796.2221"/><line style="stroke:#181818;stroke-width:1;" x1="429.3239" x2="435.3" y1="786.4215" y2="791.74"/><ellipse cx="424.8418" cy="782.4326" fill="none" rx="4" ry="4" style="stroke:#181818;stroke-width:1;"/><text fill="#000000" font-family="sans-serif" font-size="13" lengthAdjust="spacing" textLength="20.96" x="311.5" y="668.6597">has</text></g><!--link U to App--><g class="link" data-entity-1="U" data-entity-2="App" data-source-line="96" data-uid="lnk13" id="link_U_App"><path codeLine="96" d="M439.689,180.339 C465.699,213.699 488.99,250.69 502.5,295 C547.18,441.56 531.0239,603.252 511.2239,713.782" fill="none" id="U-App" style="stroke:#181818;stroke-width:1;"/><line style="stroke:#181818;stroke-width:1;" x1="434.075" x2="440.384" y1="179.644" y2="174.725"/><line style="stroke:#181818;stroke-width:1;" x1="435.9196" x2="442.2286" y1="182.0099" y2="177.0909"/><line style="stroke:#181818;stroke-width:1;" x1="439.689" x2="434.77" y1="180.339" y2="174.03"/><line style="stroke:#181818;stroke-width:1;" x1="509.4606" x2="513.956" y1="723.6254" y2="732.558"/><line style="stroke:#181818;stroke-width:1;" x1="509.4606" x2="502.144" y1="723.6254" y2="730.442"/><line style="stroke:#181818;stroke-width:1;" x1="509.4606" x2="508.05" y1="723.6254" y2="731.5"/><ellipse cx="510.5186" cy="717.7194" fill="none" rx="4" ry="4" style="stroke:#181818;stroke-width:1;"/><text fill="#000000" font-family="sans-serif" font-size="13" lengthAdjust="spacing" textLength="41.1963" x="530.5" y="465.1597">applies</text></g><!--link A to MR--><g class="link" data-entity-1="A" data-entity-2="MR" data-source-line="97" data-uid="lnk14" id="link_A_MR"><path codeLine="97" d="M203.4868,630.0792 C205.1968,646.9492 206.32,655.86 208.5,672 C209.81,681.68 208.4198,673.8835 210.0498,683.9035" fill="none" id="A-MR" style="stroke:#181818;stroke-width:1;"/><line style="stroke:#181818;stroke-width:1;" x1="199.1038" x2="207.063" y1="626.503" y2="625.6962"/><line style="stroke:#181818;stroke-width:1;" x1="199.4063" x2="207.3655" y1="629.4877" y2="628.6809"/><line style="stroke:#181818;stroke-width:1;" x1="203.4868" x2="202.68" y1="630.0792" y2="622.12"/><line style="stroke:#181818;stroke-width:1;" x1="211.6555" x2="218.8622" y1="693.7738" y2="700.7066"/><line style="stroke:#181818;stroke-width:1;" x1="211.6555" x2="207.0178" y1="693.7738" y2="702.6334"/><line style="stroke:#181818;stroke-width:1;" x1="211.6555" x2="212.94" y1="693.7738" y2="701.67"/><ellipse cx="210.6921" cy="687.8516" fill="none" rx="4" ry="4" style="stroke:#181818;stroke-width:1;"/><text fill="#000000" font-family="sans-serif" font-size="13" lengthAdjust="spacing" textLength="20.96" x="209.5" y="668.6597">has</text></g><!--link U to MR--><g class="link" data-entity-1="U" data-entity-2="MR" data-source-line="98" data-uid="lnk15" id="link_U_MR"><path codeLine="98" d="M351.0864,222.8917 C345.0464,248.8417 340.93,268.94 336.5,295 C308.28,461.12 333.52,507.62 296.5,672 C294.3,681.77 296.6541,674.4652 293.7941,684.4552" fill="none" id="U-MR" style="stroke:#181818;stroke-width:1;"/><line style="stroke:#181818;stroke-width:1;" x1="348.0974" x2="355.8891" y1="218.0891" y2="219.9026"/><line style="stroke:#181818;stroke-width:1;" x1="347.4173" x2="355.209" y1="221.011" y2="222.8245"/><line style="stroke:#181818;stroke-width:1;" x1="351.0864" x2="352.9" y1="222.8917" y2="215.1"/><line style="stroke:#181818;stroke-width:1;" x1="291.0418" x2="294.6083" y1="694.069" y2="703.4114"/><line style="stroke:#181818;stroke-width:1;" x1="291.0418" x2="283.0717" y1="694.069" y2="700.1086"/><line style="stroke:#181818;stroke-width:1;" x1="291.0418" x2="288.84" y1="694.069" y2="701.76"/><ellipse cx="292.6932" cy="688.3007" fill="none" rx="4" ry="4" style="stroke:#181818;stroke-width:1;"/><text fill="#000000" font-family="sans-serif" font-size="13" lengthAdjust="spacing" textLength="42.6309" x="337.5" y="465.1597">creates</text></g><!--link U to AL--><g class="link" data-entity-1="U" data-entity-2="AL" data-source-line="99" data-uid="lnk16" id="link_U_AL"><path codeLine="99" d="M399.4318,223.0644 C407.3118,267.0144 411.8994,292.5732 419.7894,336.5232" fill="none" id="U-AL" style="stroke:#181818;stroke-width:1;"/><line style="stroke:#181818;stroke-width:1;" x1="394.7887" x2="402.6631" y1="219.8331" y2="218.4213"/><line style="stroke:#181818;stroke-width:1;" x1="395.3181" x2="403.1926" y1="222.7861" y2="221.3742"/><line style="stroke:#181818;stroke-width:1;" x1="399.4318" x2="398.02" y1="223.0644" y2="215.19"/><line style="stroke:#181818;stroke-width:1;" x1="421.5564" x2="428.8756" y1="346.3659" y2="353.1798"/><line style="stroke:#181818;stroke-width:1;" x1="421.5564" x2="417.0644" y1="346.3659" y2="355.3002"/><line style="stroke:#181818;stroke-width:1;" x1="421.5564" x2="422.97" y1="346.3659" y2="354.24"/><ellipse cx="420.4962" cy="340.4603" fill="none" rx="4" ry="4" style="stroke:#181818;stroke-width:1;"/><text fill="#000000" font-family="sans-serif" font-size="13" lengthAdjust="spacing" textLength="51.2891" x="407.5" y="261.6597">performs</text></g><!--SRC=[ZLF1Zjem4BtdAqPxGQf4zxutr4KL4lG0oZaoyK0isR5b3x1qj__UiHt0iCsg1uBdPJplpPl91ERhLzXZZruGokVUUYEq-eqIo88Hr7OGsWwD-Ewy2aR056Q_5glPady_vt08dBcp7fGHUmH19DhEO4-Xci2y9qKAGuNnS8QdEg1_0X6WXlSAu1ie2IzGrujNZgPJVd0ztmk3V6HEfVdVYH1Erikc4w7Zs5iTNn_Hgvr2sLpoMe-nXKPGhEFa9VXJNVat7MeQ96p690pqhUsv5sfKlxF_LttMimaw5P-D5RSdThfHaeyXYyd1G1eSjj4mWAr7J5duna_sjZ4ig8kl98RMAqVAzZ6111qYh6qh1cnCRBohyH_ARnFDyXTVwwUpm_jc3ZwEG6Xg2D_eNa99v9nMMMOcScwCQU0GoTHC8lBjdeQmMBR2Xt3O6aNNZZqU5Pu-ALcXv59wZIslLjAoMez9AJNuTE7YG7GshgYtHoNH9uE9rp5yadTPrt9pj-V2gBlWmRM3LBIq-spPSbHcItOO1n_p9f3mUwIBt25AALlappOvlAEad9H1Dj6uI3s1DUeqfz0f5weQFZwcK_lEc_qIvnwgJObqbZ_SKCsks2A2eaHuqXcgxw4qrF8kp-4XCI7PclBwab67djim8Ih-OOspGH4-twpdUTtQUD1N3kWl]--></g></svg>